<?xml version="1.0" standalone="no"?>
<!DOCTYPE svg PUBLIC "-//W3C//DTD SVG 20010904//EN"
 "http://www.w3.org/TR/2001/REC-SVG-20010904/DTD/svg10.dtd">
<svg version="1.0" xmlns="http://www.w3.org/2000/svg"
 width="1024.000000pt" height="1024.000000pt" viewBox="0 0 1024.000000 1024.000000"
 preserveAspectRatio="xMidYMid meet">

<g transform="translate(0.000000,1024.000000) scale(0.100000,-0.100000)"
fill="#000000" stroke="none">
<path d="M1223 9191 c-177 -180 -363 -371 -414 -425 l-92 -98 1649 -1649 1649
-1649 422 0 423 0 0 423 0 422 -1653 1653 c-908 908 -1654 1652 -1657 1651 -3
0 -150 -148 -327 -328z"/>
<path d="M7063 7868 l-1652 -1653 6 -420 c3 -231 6 -421 7 -421 0 -1 191 -4
423 -6 l422 -4 1652 1652 1652 1652 -417 424 c-230 233 -423 424 -430 426 -6
1 -754 -741 -1663 -1650z"/>
</g>
</svg>
